<svg xmlns="http://www.w3.org/2000/svg" viewBox="0 0 423.95 354.24"><defs><style>.cls-1{fill:none;stroke:#fff;stroke-miterlimit:10;stroke-width:8px;}</style></defs><title>Fichier 3</title><g id="Calque_2" data-name="Calque 2"><g id="Calque_1-2" data-name="Calque 1"><path class="cls-1" d="M277.1,75.8l28.42,28.41,33.77-33.77a38.26,38.26,0,0,0,0-54.12l-1.11-1.11a38.26,38.26,0,0,0-54.12,0L226.83,72.43A38.28,38.28,0,0,1,277.1,75.8Z"/><path class="cls-1" d="M408.74,207.44,305.52,104.21,276.77,133a38.26,38.26,0,0,1-54.12,0l-1.11-1.11,131.4,131.4a38.26,38.26,0,0,0,54.12,0l1.68-1.68A38.27,38.27,0,0,0,408.74,207.44Z"/><path class="cls-1" d="M276.77,133l28.75-28.75L277.1,75.8a38.28,38.28,0,0,0-50.27-3.37l-5.29,5.3a38.26,38.26,0,0,0,0,54.12l1.11,1.11A38.26,38.26,0,0,0,276.77,133Z"/><path class="cls-1" d="M206.3,153.22a38.28,38.28,0,0,1-2.36,51.55L174.2,234.51,278.71,339a38.29,38.29,0,0,0,54.13,0l2.56-2.57a38.27,38.27,0,0,0,0-54.13Z"/><path class="cls-1" d="M146.17,152.36l2.57-2.56a38.27,38.27,0,0,1,54.13,0l3.43,3.42c-.74-.88-1.52-1.75-2.36-2.58l-1.1-1.11a38.29,38.29,0,0,0-54.13,0L15.21,283a38.27,38.27,0,0,0,0,54.13l1.11,1.11a38.28,38.28,0,0,0,54.12,0L174.2,234.51l-28-28A38.29,38.29,0,0,1,146.17,152.36Z"/><path class="cls-1" d="M206.3,153.22l-3.43-3.42a38.27,38.27,0,0,0-54.13,0l-2.57,2.56a38.29,38.29,0,0,0,0,54.13l28,28,29.74-29.74A38.28,38.28,0,0,0,206.3,153.22Z"/></g></g></svg>